<?xml version="1.0" standalone="no"?>
<!DOCTYPE svg PUBLIC "-//W3C//DTD SVG 20010904//EN"
 "http://www.w3.org/TR/2001/REC-SVG-20010904/DTD/svg10.dtd">
<svg version="1.0" xmlns="http://www.w3.org/2000/svg"
 width="738.000000pt" height="738.000000pt" viewBox="0 0 738.000000 738.000000"
 preserveAspectRatio="xMidYMid meet">
<metadata>
Created by potrace 1.14, written by Peter Selinger 2001-2017
</metadata>
<g transform="translate(0.000000,738.000000) scale(0.100000,-0.100000)"
fill="#000000" stroke="none">
<path d="M1672 6269 c-9 -4 -86 -48 -171 -98 -84 -50 -157 -91 -162 -91 -5 0
-9 -4 -9 -8 0 -5 -16 -16 -35 -25 l-35 -17 0 -2467 0 -2468 2118 1 c1164 1
2122 2 2128 3 8 1 11 66 10 216 -1 135 3 216 9 218 6 2 142 3 303 3 160 -1
292 1 292 5 0 3 -10 15 -22 26 -68 62 -165 220 -239 388 -14 33 -66 197 -77
245 -6 25 -14 59 -18 75 -4 17 -8 37 -10 45 -9 50 -14 80 -19 120 -3 25 -7 61
-10 80 -15 113 -18 391 -19 1990 l-1 1765 -2008 0 c-1104 0 -2016 -3 -2025 -6z
m4 -2011 c1 -1518 4 -1805 20 -1928 3 -19 5 -42 6 -50 0 -8 4 -37 9 -65 5 -27
12 -63 15 -80 7 -45 44 -187 54 -210 54 -122 73 -161 108 -211 21 -33 60 -78
86 -102 90 -83 -68 -76 1691 -76 l1570 -1 0 -80 0 -80 -1845 0 -1845 0 -3
2247 -2 2247 27 16 c43 25 108 63 108 64 0 1 1 -761 1 -1691z m1033 622 l1
-390 -377 2 -377 3 -1 375 c0 206 1 381 3 388 3 9 88 12 378 12 l373 0 0 -390z
m933 378 c3 -11 2 -696 -1 -750 -1 -17 -27 -18 -406 -18 l-405 0 0 390 0 390
404 0 c314 0 405 -3 408 -12z m935 -378 l0 -390 -406 2 -406 3 -1 375 c0 206
1 381 4 388 3 9 94 12 407 12 l403 0 -1 -390z m849 0 l0 -390 -363 0 c-200 0
-363 3 -363 8 -1 12 -1 653 -1 715 l1 57 363 0 363 0 0 -390z m-2717 -899 l0
-389 -374 0 c-263 1 -375 4 -377 12 -3 9 -2 756 1 764 1 1 170 2 376 2 l375 0
-1 -389z m936 9 c0 -206 -1 -380 -3 -387 -3 -8 -108 -12 -408 -12 l-404 0 0
389 0 390 407 -2 407 -3 1 -375z m931 -7 l-1 -388 -402 -2 c-222 -1 -404 1
-404 5 -1 4 -2 179 -3 390 l-2 382 407 0 406 0 -1 -387z m850 0 l-1 -388 -362
-1 c-265 -1 -363 1 -364 10 0 15 0 714 0 744 l1 22 363 0 363 0 0 -387z
m-2754 -513 l38 0 0 -388 -1 -388 -376 0 -377 1 -1 385 0 385 45 5 c35 4 392
4 672 0z m948 0 l25 0 -1 -378 c-1 -207 -2 -382 -3 -388 -1 -7 -124 -10 -403
-10 l-403 1 -3 387 -2 387 42 3 c33 2 602 1 748 -2z m946 0 c8 0 11 -106 10
-387 l-1 -388 -402 -1 c-361 -1 -403 1 -404 15 -1 9 -2 183 -3 386 -1 288 1
371 11 375 9 4 707 4 789 0z m860 -387 l0 -389 -357 0 c-197 1 -360 4 -364 7
-4 5 -10 679 -6 756 1 17 42 18 406 16 l320 -1 1 -389z m-2711 -515 c3 -3 8
-30 11 -59 6 -75 18 -149 38 -254 23 -118 95 -303 155 -402 11 -18 17 -34 13
-36 -4 -2 -179 -3 -389 -3 l-381 1 -22 25 c-50 57 -112 210 -136 333 -2 10 -5
26 -8 35 -3 9 -8 42 -11 72 -3 30 -8 62 -10 70 -3 8 -7 62 -10 120 l-5 105
375 -1 c206 0 377 -3 380 -6z m936 2 c0 -3 2 -13 4 -22 2 -9 6 -43 9 -75 6
-59 12 -101 21 -139 3 -12 7 -38 11 -60 9 -58 52 -203 74 -251 11 -24 20 -46
20 -51 0 -4 18 -38 40 -76 22 -37 40 -71 40 -75 0 -3 -171 -6 -381 -6 l-381 0
-30 30 c-34 34 -116 168 -125 205 -3 14 -9 30 -14 35 -9 12 -65 225 -74 280
-3 22 -8 58 -10 80 -3 22 -8 58 -11 79 -3 21 -1 42 4 45 12 7 802 8 803 1z
m933 -1 c4 -3 10 -46 21 -149 1 -14 5 -38 8 -55 4 -16 9 -46 12 -65 23 -140
81 -303 151 -423 19 -32 34 -59 34 -60 0 -7 -767 0 -778 6 -20 13 -87 108
-115 162 -27 55 -82 205 -91 251 -3 16 -10 48 -14 72 -5 23 -7 42 -5 42 2 0 1
6 -3 12 -5 7 -9 19 -9 28 -1 8 -5 42 -10 75 -12 86 -11 99 2 105 15 6 791 6
797 -1z m841 -1 c3 -3 8 -34 10 -69 11 -153 14 -178 24 -234 5 -33 13 -77 16
-99 3 -21 7 -41 9 -45 2 -3 7 -22 10 -41 3 -19 21 -84 40 -144 19 -61 33 -112
31 -115 -6 -11 -579 -6 -596 4 -50 31 -159 223 -183 325 -2 8 -12 44 -21 80
-32 123 -61 322 -50 340 4 7 703 5 710 -2z"/>
</g>
</svg>
